<mxfile host="app.diagrams.net" modified="2023-10-22T14:14:43.217Z" agent="Mozilla/5.0 (X11; Linux x86_64) AppleWebKit/537.36 (KHTML, like Gecko) Chrome/118.0.0.0 Safari/537.36" etag="u7gJEISZ0X8qzrDqKf65" version="22.0.6" type="device">
  <diagram name="PÃ¡gina-1" id="YdeuonQVin5JBxe4wAwE">
    <mxGraphModel dx="427" dy="796" grid="1" gridSize="10" guides="1" tooltips="1" connect="1" arrows="1" fold="1" page="1" pageScale="1" pageWidth="827" pageHeight="1169" math="0" shadow="0">
      <root>
        <mxCell id="0" />
        <mxCell id="1" parent="0" />
        <mxCell id="Ll42CJzOINAVQpbCptXM-1" value="" style="swimlane;startSize=0;" vertex="1" parent="1">
          <mxGeometry x="320" y="630" width="200" height="40" as="geometry" />
        </mxCell>
        <mxCell id="Ll42CJzOINAVQpbCptXM-2" value="User" style="text;html=1;align=center;verticalAlign=middle;resizable=0;points=[];autosize=1;strokeColor=none;fillColor=none;" vertex="1" parent="Ll42CJzOINAVQpbCptXM-1">
          <mxGeometry x="75" y="5" width="50" height="30" as="geometry" />
        </mxCell>
        <mxCell id="Ll42CJzOINAVQpbCptXM-3" value="" style="rhombus;whiteSpace=wrap;html=1;fillColor=#000000;" vertex="1" parent="1">
          <mxGeometry x="410" y="610" width="20" height="20" as="geometry" />
        </mxCell>
        <mxCell id="Ll42CJzOINAVQpbCptXM-8" value="" style="endArrow=none;html=1;rounded=0;" edge="1" parent="1">
          <mxGeometry width="50" height="50" relative="1" as="geometry">
            <mxPoint x="419.5" y="610" as="sourcePoint" />
            <mxPoint x="420" y="510" as="targetPoint" />
          </mxGeometry>
        </mxCell>
        <mxCell id="Ll42CJzOINAVQpbCptXM-16" style="edgeStyle=orthogonalEdgeStyle;rounded=0;orthogonalLoop=1;jettySize=auto;html=1;" edge="1" parent="1" source="Ll42CJzOINAVQpbCptXM-9">
          <mxGeometry relative="1" as="geometry">
            <mxPoint x="420" y="270" as="targetPoint" />
          </mxGeometry>
        </mxCell>
        <mxCell id="Ll42CJzOINAVQpbCptXM-9" value="iPhone" style="swimlane;whiteSpace=wrap;html=1;" vertex="1" parent="1">
          <mxGeometry x="320" y="310" width="200" height="200" as="geometry" />
        </mxCell>
        <mxCell id="Ll42CJzOINAVQpbCptXM-13" value="&lt;h1&gt;&lt;span style=&quot;font-size: 12px; font-weight: 400;&quot;&gt;&amp;nbsp;&lt;/span&gt;&lt;/h1&gt;&lt;div style=&quot;text-align: justify; font-size: 15px;&quot;&gt;&lt;span style=&quot;background-color: initial; font-weight: normal;&quot;&gt;&lt;font style=&quot;font-size: 15px;&quot;&gt;+ tocar():void&lt;/font&gt;&lt;/span&gt;&lt;/div&gt;&lt;div style=&quot;text-align: justify; font-size: 15px;&quot;&gt;&lt;span style=&quot;background-color: initial; font-weight: normal;&quot;&gt;&lt;font style=&quot;font-size: 15px;&quot;&gt;+ selecionarMusica():&lt;/font&gt;&lt;/span&gt;&lt;/div&gt;&lt;div style=&quot;text-align: justify; font-size: 15px;&quot;&gt;&lt;span style=&quot;background-color: initial; font-weight: normal;&quot;&gt;&lt;font style=&quot;font-size: 15px;&quot;&gt;+ pausar():void&lt;/font&gt;&lt;/span&gt;&lt;/div&gt;&lt;div style=&quot;text-align: justify; font-size: 15px;&quot;&gt;&lt;font style=&quot;font-size: 15px;&quot;&gt;+ ligar():void&lt;/font&gt;&lt;/div&gt;&lt;div style=&quot;text-align: justify; font-size: 15px;&quot;&gt;&lt;font style=&quot;font-size: 15px;&quot;&gt;+ atender():void&lt;/font&gt;&lt;/div&gt;&lt;div style=&quot;text-align: justify; font-size: 15px;&quot;&gt;&lt;font style=&quot;font-size: 15px;&quot;&gt;+ iniciarCorreioVoz():void&lt;/font&gt;&lt;/div&gt;&lt;div style=&quot;text-align: justify; font-size: 15px;&quot;&gt;&lt;font style=&quot;font-size: 15px;&quot;&gt;+ exibirPagina():void&lt;/font&gt;&lt;/div&gt;&lt;div style=&quot;text-align: justify; font-size: 15px;&quot;&gt;&lt;font style=&quot;font-size: 15px;&quot;&gt;+ atualizarPagina():void&lt;/font&gt;&lt;/div&gt;&lt;div style=&quot;text-align: justify; font-size: 15px;&quot;&gt;&lt;font style=&quot;font-size: 15px;&quot;&gt;+ adicionarNovaAba():void&lt;/font&gt;&lt;/div&gt;" style="text;html=1;strokeColor=none;fillColor=none;spacing=5;spacingTop=-20;whiteSpace=wrap;overflow=hidden;rounded=0;" vertex="1" parent="Ll42CJzOINAVQpbCptXM-9">
          <mxGeometry y="-20" width="200" height="220" as="geometry" />
        </mxCell>
        <mxCell id="Ll42CJzOINAVQpbCptXM-17" value="&amp;lt;&amp;lt;interface&amp;gt;&amp;gt;&lt;br&gt;AparelhoTelefonico" style="swimlane;whiteSpace=wrap;html=1;startSize=40;" vertex="1" parent="1">
          <mxGeometry x="320" y="120" width="200" height="150" as="geometry" />
        </mxCell>
        <mxCell id="Ll42CJzOINAVQpbCptXM-19" value="&lt;h1 style=&quot;font-size: 14px; line-height: 100%;&quot;&gt;&lt;br&gt;&lt;/h1&gt;&lt;div&gt;+ ligar():void&lt;/div&gt;&lt;div&gt;+ atender():void&lt;/div&gt;&lt;div style=&quot;text-align: justify;&quot;&gt;+ iniciarCorreioVoz():void&lt;/div&gt;" style="text;html=1;strokeColor=none;fillColor=none;spacing=5;spacingTop=-20;whiteSpace=wrap;overflow=hidden;rounded=0;" vertex="1" parent="1">
          <mxGeometry x="320" y="160" width="200" height="110" as="geometry" />
        </mxCell>
        <mxCell id="Ll42CJzOINAVQpbCptXM-22" value="&amp;lt;&amp;lt;interface&amp;gt;&amp;gt;&lt;br&gt;ReprodutorMusical" style="swimlane;whiteSpace=wrap;html=1;startSize=40;" vertex="1" parent="1">
          <mxGeometry x="40" y="120" width="200" height="150" as="geometry" />
        </mxCell>
        <mxCell id="Ll42CJzOINAVQpbCptXM-23" value="&lt;h1 style=&quot;font-size: 14px; line-height: 100%;&quot;&gt;&lt;br&gt;&lt;/h1&gt;&lt;div&gt;+ tocar():void&lt;/div&gt;&lt;div&gt;+ pausar():void&lt;/div&gt;&lt;div style=&quot;text-align: justify;&quot;&gt;+&amp;nbsp;selecionarMusica():void&lt;/div&gt;" style="text;html=1;strokeColor=none;fillColor=none;spacing=5;spacingTop=-20;whiteSpace=wrap;overflow=hidden;rounded=0;" vertex="1" parent="1">
          <mxGeometry x="40" y="160" width="200" height="110" as="geometry" />
        </mxCell>
        <mxCell id="Ll42CJzOINAVQpbCptXM-24" value="&amp;lt;&amp;lt;interface&amp;gt;&amp;gt;&lt;br&gt;NavegadorInternet" style="swimlane;whiteSpace=wrap;html=1;startSize=40;" vertex="1" parent="1">
          <mxGeometry x="600" y="120" width="200" height="150" as="geometry" />
        </mxCell>
        <mxCell id="Ll42CJzOINAVQpbCptXM-25" value="&lt;h1 style=&quot;font-size: 14px; line-height: 100%;&quot;&gt;&lt;br&gt;&lt;/h1&gt;&lt;div&gt;+ exibirPagina():void&lt;/div&gt;&lt;div&gt;+ atualizarPagina():void&lt;/div&gt;&lt;div style=&quot;text-align: justify;&quot;&gt;+&amp;nbsp;adicionarNovaAba():void&lt;/div&gt;" style="text;html=1;strokeColor=none;fillColor=none;spacing=5;spacingTop=-20;whiteSpace=wrap;overflow=hidden;rounded=0;" vertex="1" parent="1">
          <mxGeometry x="600" y="160" width="200" height="110" as="geometry" />
        </mxCell>
        <mxCell id="Ll42CJzOINAVQpbCptXM-26" style="edgeStyle=orthogonalEdgeStyle;rounded=0;orthogonalLoop=1;jettySize=auto;html=1;entryX=0.5;entryY=1;entryDx=0;entryDy=0;" edge="1" parent="1" source="Ll42CJzOINAVQpbCptXM-13" target="Ll42CJzOINAVQpbCptXM-23">
          <mxGeometry relative="1" as="geometry">
            <mxPoint x="140" y="400" as="targetPoint" />
          </mxGeometry>
        </mxCell>
        <mxCell id="Ll42CJzOINAVQpbCptXM-27" style="edgeStyle=orthogonalEdgeStyle;rounded=0;orthogonalLoop=1;jettySize=auto;html=1;entryX=0.5;entryY=1;entryDx=0;entryDy=0;" edge="1" parent="1" source="Ll42CJzOINAVQpbCptXM-13" target="Ll42CJzOINAVQpbCptXM-25">
          <mxGeometry relative="1" as="geometry">
            <mxPoint x="700" y="400" as="targetPoint" />
          </mxGeometry>
        </mxCell>
      </root>
    </mxGraphModel>
  </diagram>
</mxfile>
